<?xml version="1.0" encoding="UTF-8"?>
<svg version="1.1" xmlns="http://www.w3.org/2000/svg" width="219" height="219">
<path d="M0 0 C1.75 1.0625 1.75 1.0625 3 3 C6.42613268 20.60771986 -0.25488757 45.19273772 -10 60 C-21.50030345 74.03656566 -36.24899966 81.86000612 -54.2421875 83.78125 C-65.51473184 84.43744801 -79.06575451 83.64275632 -88.71875 77.1796875 C-93.12901113 75.59409362 -95.62247893 76.67235542 -99.99462891 78.05712891 C-103.01401738 79.00439766 -106.0124775 79.72199911 -109.10546875 80.38671875 C-110.10771484 80.60263672 -111.10996094 80.81855469 -112.14257812 81.04101562 C-113.14740234 81.25435547 -114.15222656 81.46769531 -115.1875 81.6875 C-116.75854492 82.02491211 -116.75854492 82.02491211 -118.36132812 82.36914062 C-120.90698571 82.91546896 -123.45319539 83.45904881 -126 84 C-110.65327152 95.89021461 -93.52104955 102.29252209 -74 100 C-59.06417881 97.39964947 -45.83260175 91.77789164 -35 81 C-35 85.21691521 -36.64914945 86.75586162 -39.43359375 89.8046875 C-55.60533667 103.63805054 -78.75277805 105.03439163 -99.05566406 103.55297852 C-119.39318709 101.7377864 -141.25870642 95.80794293 -155.01953125 79.625 C-162.95040723 68.93918816 -165.2761686 59.11690817 -164 46 C-161.29257284 33.48816205 -153.18513638 22.5415304 -145 13 C-144.29230469 12.16984375 -143.58460938 11.3396875 -142.85546875 10.484375 C-136.77077432 3.48528307 -136.77077432 3.48528307 -133 1 C-132.34 1 -131.68 1 -131 1 C-128.96287451 4.76225077 -126.94816219 8.53604956 -124.9375 12.3125 C-124.35677734 13.38435547 -123.77605469 14.45621094 -123.17773438 15.56054688 C-122.63310547 16.58857422 -122.08847656 17.61660156 -121.52734375 18.67578125 C-120.76538696 20.0975769 -120.76538696 20.0975769 -119.98803711 21.5480957 C-119 24 -119 24 -120 27 C-121.5778125 27.12375 -121.5778125 27.12375 -123.1875 27.25 C-127.53808378 28.10585255 -129.00240768 28.76575566 -132 32 C-138.28165802 42.50491962 -139.93392386 54.26581125 -137.28125 66.24609375 C-135.35018273 71.86020463 -132.69949932 76.37562585 -129 81 C-119.71043436 80.70033659 -111.61272672 77.75156134 -102.94775391 74.6484375 C-100.9825207 73.99418087 -99.01503148 73.47637209 -97 73 C-97.49371094 72.443125 -97.98742187 71.88625 -98.49609375 71.3125 C-102.84903092 66.12751246 -104.87620078 62.80895731 -105 56 C-104.484375 56.721875 -103.96875 57.44375 -103.4375 58.1875 C-100.17561585 61.95121248 -96.61528762 64.7986687 -92.078125 66.8828125 C-89.82575346 67.22047869 -89.82575346 67.22047869 -87.703125 65.4453125 C-85.10670496 62.98946298 -82.52912939 60.52532619 -80 58 C-79.25621094 57.2678125 -78.51242188 56.535625 -77.74609375 55.78125 C-70.24033222 47.91942768 -65.56003616 38.34672775 -65.72265625 27.37890625 C-66.3534543 21.96825822 -68.65205207 18.1912098 -72.6875 14.625 C-83.80724612 9.1700302 -96.04827873 10.83194347 -108 12 C-107 10 -107 10 -104.234375 8.96484375 C-103.08453125 8.62582031 -101.9346875 8.28679687 -100.75 7.9375 C-99.61046875 7.59589844 -98.4709375 7.25429687 -97.296875 6.90234375 C-86.1252981 3.84472021 -70.58739833 2.5011187 -60 8 C-55.4090103 11.0031286 -52.66348269 13.68154125 -51 19 C-49.62525993 31.62261335 -53.14681605 41.57943624 -60.8671875 51.3671875 C-66.79450782 58.33667403 -73.64149095 63.65456066 -81 69 C-69.85051933 72.71649356 -57.009907 68.73740539 -46 66 C-45.23510254 65.81276367 -44.47020508 65.62552734 -43.68212891 65.43261719 C-27.83650706 61.46178185 -14.99457088 55.35350635 -6.11328125 40.9375 C-3.13797696 35.38914701 -1.33935422 31.40688773 -2 25 C-3.22611443 21.50779079 -4.92424862 18.25486713 -6.59960938 14.9609375 C-8.83469272 10.2830661 -9.49902315 7.19142216 -8 2 C-4.76746204 -0.15502531 -3.74849077 -0.46856135 0 0 Z " fill="#D4B591" transform="translate(200,100)"/>
<path d="M0 0 C11.70587756 9.92556377 18.76581362 22.18171006 20.7734375 37.4921875 C21.79728228 51.93088741 20.27944772 63.95077274 10.7734375 75.4921875 C8.53147346 77.67550862 6.24721298 79.56264262 3.7734375 81.4921875 C3.7734375 77.77823569 4.66115591 77.13641676 7.0234375 74.3671875 C15.78242428 63.49824237 16.7914414 52.02376368 15.7734375 38.4921875 C14.13789343 28.75184545 9.65173645 21.2953412 3.7734375 13.4921875 C3.30164063 12.83605469 2.82984375 12.17992188 2.34375 11.50390625 C-8.34908452 -2.25758197 -25.73631151 -9.61222688 -42.5625 -11.9765625 C-57.21825431 -13.42567079 -71.49148724 -11.77795419 -83.4765625 -2.8203125 C-94.27424673 6.40587778 -99.29634905 20.05312547 -100.54296875 34.04296875 C-100.62417969 35.28433594 -100.70539063 36.52570313 -100.7890625 37.8046875 C-100.87285156 39.05894531 -100.95664063 40.31320313 -101.04296875 41.60546875 C-101.13384766 43.03439453 -101.13384766 43.03439453 -101.2265625 44.4921875 C-109.55499525 48.025462 -118.33462853 49.20423375 -126.9765625 45.9921875 C-128.0490625 45.4971875 -129.1215625 45.0021875 -130.2265625 44.4921875 C-126.40614099 50.30587241 -120.70672242 53.33213419 -114.2265625 55.4921875 C-111.9427108 55.57597378 -109.6564615 55.59948665 -107.37109375 55.58984375 C-106.70945724 55.5884288 -106.04782074 55.58701385 -105.36613464 55.58555603 C-103.25706422 55.57996746 -101.14810073 55.56741715 -99.0390625 55.5546875 C-97.60742341 55.54967102 -96.17578265 55.54510837 -94.74414062 55.54101562 C-91.23824662 55.5300018 -87.732415 55.51274505 -84.2265625 55.4921875 C-86.66207823 58.089105 -88.7128798 59.98602415 -91.9921875 61.38671875 C-92.70971191 61.69883301 -93.42723633 62.01094727 -94.16650391 62.33251953 C-94.92882324 62.65333496 -95.69114258 62.97415039 -96.4765625 63.3046875 C-97.26853027 63.64870605 -98.06049805 63.99272461 -98.87646484 64.34716797 C-102.80029282 66.04845726 -106.74064694 67.70844714 -110.6875 69.35546875 C-121.9943394 74.10951044 -132.05991208 79.04253882 -137.26171875 90.83984375 C-141.9855875 104.70384926 -138.33487748 118.48033564 -132.08398438 131.24536133 C-130.50864398 134.35262995 -128.88520245 137.42853457 -127.2265625 140.4921875 C-131.19815154 139.16832449 -132.40827637 136.69463605 -134.5390625 133.3046875 C-134.93569092 132.6761084 -135.33231934 132.0475293 -135.7409668 131.39990234 C-148.71216851 110.3062514 -154.24646416 83.37270528 -149.54296875 58.94140625 C-147.1282024 49.46478987 -142.91611492 41.01150255 -138.2265625 32.4921875 C-137.44345703 31.04199219 -137.44345703 31.04199219 -136.64453125 29.5625 C-131.49724741 20.77953972 -124.33392243 13.6912822 -117.2265625 6.4921875 C-116.37964844 5.60917969 -115.53273437 4.72617187 -114.66015625 3.81640625 C-86.65599033 -23.61914716 -30.18978567 -24.20655323 0 0 Z " fill="#DBBD9C" transform="translate(165.2265625,31.5078125)"/>
<path d="M0 0 C1.75 1.0625 1.75 1.0625 3 3 C6.42613268 20.60771986 -0.25488757 45.19273772 -10 60 C-21.50030345 74.03656566 -36.24899966 81.86000612 -54.2421875 83.78125 C-67.65581823 84.56208505 -81.63246536 82.57835643 -93 75 C-90.37917557 72.11709313 -87.90607621 70.14987338 -83.91967773 69.83642578 C-83.18177002 69.8723584 -82.4438623 69.90829102 -81.68359375 69.9453125 C-80.84666992 69.97278564 -80.00974609 70.00025879 -79.14746094 70.02856445 C-78.25317383 70.06038818 -77.35888672 70.09221191 -76.4375 70.125 C-65.79179145 70.30451515 -56.25865764 68.69490342 -46 66 C-45.2467041 65.81276367 -44.4934082 65.62552734 -43.71728516 65.43261719 C-27.85476786 61.46441779 -15.00543739 55.37114476 -6.11328125 40.9375 C-3.13797696 35.38914701 -1.33935422 31.40688773 -2 25 C-3.22611443 21.50779079 -4.92424862 18.25486713 -6.59960938 14.9609375 C-8.83469272 10.2830661 -9.49902315 7.19142216 -8 2 C-4.76746204 -0.15502531 -3.74849077 -0.46856135 0 0 Z " fill="#EADAC9" transform="translate(200,100)"/>
<path d="M0 0 C0.33 0 0.66 0 1 0 C1.22405089 5.24822238 0.53766467 9.719752 -1.0625 14.6875 C-1.28800537 15.38810547 -1.51351074 16.08871094 -1.74584961 16.81054688 C-5.90621773 29.11882947 -13.76878081 39.15032936 -21.67675781 49.28759766 C-22.836439 50.78833638 -23.9514554 52.32337156 -25.05859375 53.86328125 C-27.28143546 56.30974889 -28.70326434 56.93977469 -31.875 57.75 C-33.10863281 58.08257812 -33.10863281 58.08257812 -34.3671875 58.421875 C-39.24207813 59.49232576 -43.88301461 60.12708655 -48.87890625 60.1328125 C-49.96494141 60.13410156 -51.05097656 60.13539062 -52.16992188 60.13671875 C-53.28947266 60.13285156 -54.40902344 60.12898438 -55.5625 60.125 C-56.68591797 60.12886719 -57.80933594 60.13273437 -58.96679688 60.13671875 C-60.05154297 60.13542969 -61.13628906 60.13414063 -62.25390625 60.1328125 C-63.72839233 60.13112061 -63.72839233 60.13112061 -65.23266602 60.12939453 C-67.921333 60.0036783 -70.38052451 59.60162204 -73 59 C-73 58.34 -73 57.68 -73 57 C-72.05640625 56.84144531 -71.1128125 56.68289062 -70.140625 56.51953125 C-46.93057384 52.30164043 -24.03337067 38.53161365 -9.78613281 19.3671875 C-5.60436198 13.2768862 -2.21127914 7.04845226 0 0 Z " fill="#DFCBB3" transform="translate(123,24)"/>
<path d="M0 0 C1.75 1.0625 1.75 1.0625 3 3 C4.03179966 8.13336355 3.92516553 12.73241743 3.1875 17.875 C3.0942041 18.57173828 3.0009082 19.26847656 2.90478516 19.98632812 C2.19909241 25.06920721 1.24391881 30.02432478 0 35 C-0.66 35 -1.32 35 -2 35 C-1.91878906 34.46375 -1.83757812 33.9275 -1.75390625 33.375 C-1.17421659 26.18211599 -3.37640539 21.06406999 -6.59790039 14.79882812 C-8.87146983 10.18176853 -9.4830242 7.15527459 -8 2 C-4.76746204 -0.15502531 -3.74849077 -0.46856135 0 0 Z " fill="#C1A57F" transform="translate(200,100)"/>
<path d="M0 0 C3.11788831 6.23577662 3.18183203 12.10759497 3.1875 18.9375 C3.19974609 19.71029297 3.21199219 20.48308594 3.22460938 21.27929688 C3.23718498 26.23827773 2.58420501 30.2974784 1 35 C0.67 35 0.34 35 0 35 C0 23.45 0 11.9 0 0 Z " fill="#CBAB85" transform="translate(183,59)"/>
<path d="M0 0 C0.515625 0.721875 1.03125 1.44375 1.5625 2.1875 C5.28604512 6.48389821 9.78085391 9.70357572 15 12 C13.25 14.0625 13.25 14.0625 11 16 C7.64540759 15.67601522 6.00857462 14.41584642 3.8125 11.9375 C0.59737894 8.03400289 0.17487092 4.98382121 0 0 Z " fill="#F4EAE7" transform="translate(95,156)"/>
<path d="M0 0 C0.66 0.33 1.32 0.66 2 1 C2.91069334 7.98198225 0.18983212 12.51289768 -4 18 C-6.52196209 20.54004067 -9.16033312 22.82340255 -12 25 C-12 21.28604819 -11.11228159 20.64422926 -8.75 17.875 C-4.36523959 12.43399164 -1.5614692 6.81229211 0 0 Z " fill="#D4B897" transform="translate(181,88)"/>
<path d="M0 0 C2.94684857 4.42027286 3.13531119 7.22311756 3.09765625 12.4140625 C3.09553383 13.50852188 3.09553383 13.50852188 3.09336853 14.62509155 C3.08776531 16.95843585 3.07521235 19.29168464 3.0625 21.625 C3.05748541 23.20572778 3.05292243 24.78645707 3.04882812 26.3671875 C3.03779484 30.24482854 3.02052811 34.12239807 3 38 C2.67 38 2.34 38 2 38 C1.97494385 37.44538086 1.9498877 36.89076172 1.92407227 36.31933594 C1.80772073 33.79601157 1.68517246 31.27302464 1.5625 28.75 C1.52318359 27.87730469 1.48386719 27.00460938 1.44335938 26.10546875 C1.40146484 25.26113281 1.35957031 24.41679688 1.31640625 23.546875 C1.26141968 22.38430176 1.26141968 22.38430176 1.20532227 21.19824219 C1.05641828 19.00552427 1.05641828 19.00552427 0.48632812 16.9453125 C-0.31046081 13.75815677 -0.10260842 10.51420863 -0.0625 7.25 C-0.05798828 6.55261719 -0.05347656 5.85523438 -0.04882812 5.13671875 C-0.0371002 3.42444197 -0.01916653 1.71220967 0 0 Z " fill="#D3B795" transform="translate(180,51)"/>
<path d="M0 0 C2.9826515 2.84707643 4.92844153 4.85077092 5.1953125 9.13671875 C5.17210937 10.30847656 5.14890625 11.48023438 5.125 12.6875 C5.10695312 13.86699219 5.08890625 15.04648437 5.0703125 16.26171875 C5.03550781 17.61716797 5.03550781 17.61716797 5 19 C1.77800745 15.77800745 0.11979006 12.77729333 -0.19140625 8.16015625 C-0.18789761 5.43394408 -0.13081478 2.72288537 0 0 Z " fill="#E1CAB0" transform="translate(175,43)"/>
<path d="M0 0 C0.33 0 0.66 0 1 0 C1.25 2.26171875 1.25 2.26171875 1 5 C-0.75 7.01953125 -0.75 7.01953125 -3 8.8125 C-3.7425 9.41707031 -4.485 10.02164063 -5.25 10.64453125 C-5.8275 11.09183594 -6.405 11.53914063 -7 12 C-7 8.21516391 -5.89417485 7.22592069 -3.5625 4.3125 C-2.92441406 3.50425781 -2.28632813 2.69601563 -1.62890625 1.86328125 C-1.09136719 1.24839844 -0.55382812 0.63351563 0 0 Z " fill="#E9D6C1" transform="translate(176,101)"/>
<path d="M0 0 C0.33 0 0.66 0 1 0 C1.1875 3.375 1.1875 3.375 1 7 C0.01 7.66 -0.98 8.32 -2 9 C-1.125 2.25 -1.125 2.25 0 0 Z " fill="#DEC6A9" transform="translate(179,95)"/>
</svg>
